<?xml version="1.0" encoding="utf-8"?>
<!-- Generator: Adobe Illustrator 16.0.0, SVG Export Plug-In . SVG Version: 6.00 Build 0)  -->
<!DOCTYPE svg PUBLIC "-//W3C//DTD SVG 1.1//EN" "http://www.w3.org/Graphics/SVG/1.1/DTD/svg11.dtd">
<svg version="1.1" id="Layer_1" xmlns="http://www.w3.org/2000/svg" xmlns:xlink="http://www.w3.org/1999/xlink" x="0px" y="0px"
	 width="141.73px" height="141.73px" viewBox="0 0 141.73 141.73" enable-background="new 0 0 141.73 141.73" xml:space="preserve">
<g>
	<linearGradient id="SVGID_1_" gradientUnits="userSpaceOnUse" x1="70.8652" y1="129.3936" x2="70.8652" y2="12.3374">
		<stop  offset="0" style="stop-color:#EC008C"/>
		<stop  offset="1" style="stop-color:#F7941E"/>
	</linearGradient>
	<path fill="url(#SVGID_1_)" d="M25.675,126.265h90.381c-1.141,1.09-2.33,2.129-3.559,3.129h-83.25
		C28.019,128.405,26.826,127.354,25.675,126.265z M21.708,122.196h98.327c0.814-0.916,1.604-1.854,2.381-2.816H19.33
		C20.093,120.343,20.882,121.28,21.708,122.196z M15.285,113.745h111.163c0.787-1.227,1.537-2.48,2.229-3.756H13.056
		C13.755,111.265,14.496,112.519,15.285,113.745z M10.029,103.729h121.676c0.812-1.941,1.537-3.918,2.152-5.945H7.873
		C8.5,99.812,9.212,101.788,10.029,103.729z M6.912,94.339h127.911c0.725-2.855,1.252-5.77,1.58-8.764H5.332
		C5.658,88.569,6.199,91.483,6.912,94.339z M136.711,74.937c-0.051-0.978-0.111-1.955-0.211-2.919
		c-3.143-33.477-31.338-59.681-65.629-59.681c-34.303,0-62.496,26.204-65.639,59.681c-0.098,0.964-0.164,1.941-0.213,2.919
		c-0.062,1.1-0.088,2.215-0.088,3.34c0,1.691,0.062,3.355,0.188,5.01h131.495c0.121-1.654,0.186-3.318,0.186-5.01
		C136.799,77.151,136.771,76.036,136.711,74.937z"/>
	<g>
		<path d="M61.304,54.468l-0.26-0.086v0.39c0.305,0,0.346,0.305,0.346,0.521c0.131,0,0.348-0.088,0.348-0.262
			c0-0.086-0.133-0.086-0.174-0.086C61.564,54.771,61.435,54.599,61.304,54.468z"/>
		<path d="M57.964,49.092c-0.043,0-0.086,0-0.086,0.043c0,0.131,0.346,0.348,0.436,0.434c0-0.043-0.131-0.65-0.264-0.65
			C57.964,48.918,57.964,49.048,57.964,49.092z"/>
		<path d="M58.486,49.742c0,0.304,0.217,0.478,0.348,0.694c0,0.261,0.258,0.52,0.434,0.649c0.041,0.348,0.127,0.737,0.303,1.042
			l0.391,0.043c0.086,0,0.086-0.043,0.086-0.088c0-0.39-0.779-1.301-0.955-1.517c-0.217,0-0.217-0.217-0.127-0.347
			C58.746,50.089,58.791,49.742,58.486,49.742z"/>
		<path d="M66.769,60.713l0.258,0.043l-0.041-0.217c-0.176-0.174-0.479-0.347-0.74-0.39c0-0.045-0.041-0.218-0.127-0.218
			c-0.045,0-0.133,0-0.176,0.045c0.262,0.259,0.303,0.346,0.436,0.693l0.26-0.174L66.769,60.713z"/>
		<path d="M34.179,51.078c0,0.001,0,0.001-0.002,0.001C34.179,51.079,34.179,51.079,34.179,51.078z"/>
		<path d="M62,55.597c0,0.174,0,0.347,0.217,0.347h0.256C62.472,55.726,62.216,55.597,62,55.597z"/>
		<path d="M41.705,65.786c0,0.26,0.043,0.346,0.303,0.346h0.174C42.181,65.873,41.921,65.786,41.705,65.786z"/>
		<path d="M60.783,53.515c0.086,0,0.086,0.088,0.086,0.131l0.176,0.259l0.346,0.087v-0.303c-0.26,0-0.215-0.347-0.475-0.347
			l-0.35-0.348c0-0.174,0.045-0.303-0.172-0.303h-0.172l0.172,0.477c0.262,0,0.172,0.347,0.172,0.521
			C60.611,53.646,60.697,53.515,60.783,53.515z"/>
		<path d="M34.177,51.079c-0.008,0.001-0.014,0.002-0.021,0.004C34.164,51.081,34.169,51.08,34.177,51.079z"/>
		<path d="M34.156,51.083c-0.014,0.002-0.025,0.003-0.039,0.003C34.13,51.086,34.142,51.086,34.156,51.083z"/>
		<path d="M65.986,38.382c-0.26,0.13-0.736,0.216-0.736,0.562c0.262-0.086,0.564-0.131,0.869-0.131l0.303-0.26l0.131-0.346
			c0-0.13-0.174-0.174-0.262-0.174L65.986,38.382z"/>
		<path d="M71.796,30.271c0.219-0.086,0.479-0.129,0.694-0.173v-0.174C72.275,29.925,71.796,29.969,71.796,30.271z"/>
		<polygon points="32.947,51.65 33.119,51.65 33.335,51.26 		"/>
		<path d="M70.585,67.738l0.127,0.217c0.262,0.086,0.566,0.13,0.824,0.174l-0.348-0.261L70.585,67.738z"/>
		<polygon points="67.765,64.529 67.722,64.572 67.765,64.572 		"/>
		<path d="M32.21,49.352v0.043c0,0.131,0.17,0.174,0.301,0.174L32.21,49.352z"/>
		<path d="M64.771,39.118l-0.258-0.26c-0.045,0.172-0.176,0.346-0.348,0.346l-0.217,0.304h-0.477v0.174
			c0,0.131,0.129,0.131,0.26,0.131h0.348c0.174-0.088,0.303-0.261,0.434-0.435C64.644,39.378,64.771,39.248,64.771,39.118z"/>
		<path d="M64.208,58.154l0.393,0.391c0.043,0.131,0.26,0.521,0.434,0.435c0.129,0.216,0.262,0.477,0.303,0.736l0.348-0.044
			c-0.174-0.477-0.521-0.736-0.914-1.041c-0.127-0.217-0.217-0.477-0.518-0.477H64.208z"/>
		<path d="M63.646,57.721v0.087l0.389,0.26c-0.041-0.086-0.215-0.434-0.346-0.434C63.646,57.634,63.646,57.677,63.646,57.721z"/>
		<polygon points="62.82,56.29 62.472,55.943 62.605,56.464 		"/>
		<path d="M96.299,30.933c0-0.087-0.133-0.087-0.219-0.087s-0.303,0-0.303,0.174c0,0.086,0.086,0.174,0.174,0.26
			C96.039,31.236,96.299,31.062,96.299,30.933z"/>
		<path d="M92.309,66.446l-0.391-0.477C91.918,66.274,91.961,66.446,92.309,66.446z"/>
		<path d="M73.793,72.864c-0.174,0.173-0.434,0.434-0.434,0.694c0,0.043,0.086,0.086,0.129,0.086c0.26,0,0.477-0.347,0.477-0.607
			C73.965,72.951,73.922,72.864,73.793,72.864z"/>
		<path d="M104.492,76.116l0.434,0.303l0.217-0.26l-0.258-0.389C104.58,75.771,104.537,75.813,104.492,76.116z"/>
		<path d="M95.516,31.843c0.09,0.088,0.217,0.174,0.305,0.174c0.131,0,0.131-0.086,0.131-0.174v-0.563h-0.088
			c-0.348,0-0.217,0.131-0.043,0.217c-0.088,0.044-0.389,0.218-0.389,0.304C95.432,31.843,95.516,31.843,95.516,31.843z"/>
		<path d="M73.922,42.9l0.086-0.174l-0.648-0.043c0,0.217,0.348,0.217,0.477,0.217H73.922z"/>
		<path d="M74.877,42.641c0-0.131-0.086-0.218-0.217-0.218l-0.434,0.044c0,0.174,0.129,0.217,0.303,0.217L74.877,42.641z"/>
		<path d="M78.822,42.035l0.088-0.174l-0.65-0.087C78.26,41.989,78.648,42.035,78.822,42.035z"/>
		<path d="M105.969,73.169h0.605l-0.043-0.347c-0.174,0-0.305-0.088-0.434-0.088C105.969,72.822,105.969,73.037,105.969,73.169z"/>
		<path d="M79.775,41.861v-0.044c0-0.174-0.129-0.217-0.258-0.217l-0.395,0.043c0,0.218,0.178,0.218,0.348,0.218H79.775z"/>
		<path d="M111.52,82.839c-0.262-0.393-0.521-0.869-0.652-1.346c0-0.26-0.217-0.52-0.389-0.693
			c-0.262-0.043-0.174-0.391-0.133-0.562l-0.301-0.305c0-0.131-0.045-0.305-0.176-0.348c-0.174,0-0.174-0.217-0.129-0.346
			l-0.262-0.348c0-0.389-0.691-0.824-0.691-1.041c-0.086-0.26-0.26-0.477-0.434-0.693v-0.043c0-0.174-0.172-0.088-0.131-0.305
			c-0.174-0.043-0.262-0.174-0.217-0.346c-0.131-0.262-0.26-0.564-0.26-0.867l-0.348-0.35c0-0.215-0.172-0.303-0.348-0.258
			l-0.391-0.433c0-1.171-0.346-0.349-0.346-0.998l-0.305-0.217l-0.172-0.52l0.043-0.608c-0.172-0.129-0.391-0.389-0.477-0.605
			v-0.088c0,0,0-0.086-0.043-0.086c-0.219,0,0,0.477-0.305,0.477h-0.131l-0.172-0.391l0.041-0.39l-0.346-0.782l-0.26-0.26
			l0.043-0.478c-0.477-0.214-1.039-0.691-1.039-1.257c0-0.174-0.479-0.434-0.479-0.693c-0.391-0.043-0.303-0.087-0.303-0.435
			c0-0.129-0.088-0.129-0.174-0.129h-0.303c0,0.043,0,0.303-0.131,0.303c-0.043,0-0.086-0.086-0.086-0.129l-0.131-0.088l0.389-0.26
			c-0.129-0.044-0.172-0.218-0.172-0.347c-0.434,0-0.348-0.042-0.348-0.434l-0.607-0.823l-0.389,0.303
			c0.041-0.174,0.129-0.348,0.26-0.477c-0.131-0.043-0.174-0.174-0.174-0.304c-0.131-0.044-0.477-0.217-0.607-0.174l-0.26-0.174
			v-0.086c-0.174-0.218-0.389-0.435-0.605-0.608c0-0.648-0.479-0.648-0.479-0.996c-0.391-0.043-0.305-0.087-0.305-0.435
			c0-0.129-0.086-0.129-0.172-0.129h-0.303c0,0.043,0,0.303-0.131,0.303c-0.045,0-0.088-0.086-0.088-0.129
			c-0.043,0-0.174,0-0.174-0.088c0-0.086,0.348-0.217,0.434-0.26c-0.129-0.044-0.172-0.218-0.172-0.347
			c-0.434,0-0.346-0.044-0.346-0.434l-0.609-0.825l-0.389,0.305c0.043-0.174,0.129-0.347,0.258-0.478
			c-0.129-0.042-0.172-0.173-0.172-0.303c-0.215-0.087-0.434-0.174-0.65-0.174c-0.172,0-0.217-0.086-0.217-0.26
			c-0.174-0.217-0.65-0.955-0.91-0.997l-0.391-0.349c0.043-0.174,0.215-0.217,0.348-0.174c0.217-0.129,0.477-0.26,0.736-0.26
			c0.129,0,0.129,0.088,0.129,0.217c0,0,0,0.088,0.043,0.088c0.09,0,0.262-0.392,0.305-0.478c0.131,0,0.26-0.088,0.305-0.217
			l0.436-0.13c0.17-0.26,0.301-0.173,0.561-0.173c0.131,0,0.219-0.087,0.176-0.217c0.127,0,0.561-0.043,0.561-0.217
			c-0.129-0.174-0.953-0.087-0.434-0.392c-0.303,0.088-0.824,0.044-1.125,0l-0.219,0.175l-0.129-0.175l-0.479,0.305
			c-0.301,0,0.043,0.173,0.043,0.261c0,0.086-0.129,0.043-0.172,0.043c0-0.131-0.086-0.131-0.217-0.131
			c-0.174,0-0.436,0.088-0.605,0.174c-0.219-0.043-0.607-0.174-0.781,0.043l-0.043-0.26h0.086c0.131,0,0.26-0.043,0.26-0.174h0.479
			c0.041-0.39,0.736-0.433,1.039-0.39c0.303-0.217,0.691-0.391,1.086-0.521v0.044c0,0.261,0.822,0.044,0.777,0.478l0.52,0.217
			l0.262,0.347c0.219-0.217,0.391-0.477,0.566-0.737c0.041-0.434,0.561-0.304,0.561-0.563c0.086,0,0.262,0,0.262-0.131l0.172,0.174
			c0,0.043,0.088,0.173,0.133,0.173c0.086,0,0.086-0.13,0.086-0.173c0.129,0.043,0.389,0.13,0.389-0.087h-0.174
			c-0.172,0-0.387-0.044-0.387-0.261l0.689-0.304c0.305,0,0.695-0.217,0.695-0.563c-0.129-0.087-0.781-0.476-0.781-0.129h-0.043
			c-0.174,0-0.346-0.086-0.346-0.261l0.52-0.217h0.174c0.389,0,0-0.563,1.256-0.649l0.348-0.174l0.133,0.26l-0.348,0.304h-0.48
			c-0.041,0.174-0.127,0.348-0.258,0.434c-0.043,0-0.174,0-0.174,0.087c0,0.086,0.131,0.173,0.174,0.217
			c0.305-0.261,0.693-0.433,1.041-0.563c0.045-0.174,0.217-0.347,0.391-0.435h0.521l0.648-0.521c0-0.086,0.043-0.174,0.129-0.174
			c0.219,0,0.391,0.305,0.652,0.305c0.086,0,0.086-0.087,0.086-0.174c0.65-0.651,3.342-2.385,3.342-2.948
			c0.561-0.261,0.734-1.085,1.256-1.346l0.041-0.259c0.133-0.086,0.178-0.304,0.178-0.434l0.127-0.13
			c0-0.65,0.086-1.128,0.217-1.779c-0.174,0-0.217-0.173-0.174-0.304c-0.215,0,0.043-0.302,0.086-0.345
			c-0.129-0.218-0.301-0.521-0.301-0.782c-0.389-0.26-0.652-0.692-1.041-0.954c0-0.043,0.043-0.216,0.086-0.216
			c0.045,0,0.045,0.216,0.045,0.216c0.174,0.044,0.303,0.305,0.389,0.348c0.086-0.131,0.086-0.26,0.086-0.391l-0.475-0.781
			l-0.781-0.388l-0.305-0.348l-0.217,0.13l-0.26-0.304c-0.346,0-0.436-0.347-0.564-0.607c-0.172,0-0.391-0.043-0.518-0.131
			l0.17-0.172l-0.258-0.175c-0.26,0-0.174,0.13-0.045,0.261l-0.477-0.174l-0.174-0.261h0.174c0,0.044,0,0.174,0.043,0.174
			c0.086,0,0.219-0.086,0.26-0.174c-0.215-0.303-0.607-0.086-0.865-0.086c-0.176,0-0.479,0-0.479-0.217l0.52-0.131l-0.346-0.303
			l-0.432-0.044l-0.047-0.174c-0.086-0.129-0.301-0.171-0.475-0.171c0,0.085-0.045,0.171-0.176,0.171
			c-0.086,0-0.172-0.129-0.172-0.217c-0.477,0-0.736-0.346-1.17-0.346c-0.045-0.086-0.262-0.434-0.262-0.086l-0.477-0.348
			c-0.217,0-0.436-0.13-0.65-0.13l-0.348-0.391c-0.346-0.043-0.736-0.174-0.996-0.391l-0.172,0.174l-0.393-0.044
			c0,0.044,0,0.174-0.088,0.174c-0.086,0-0.172-0.087-0.26-0.174h-0.436l-0.127-0.173l-1.129-0.087
			c-0.086-0.131-0.346-0.131-0.475-0.131c-0.133,0-0.479,0-0.436-0.217c-0.391,0-0.953-0.173-1.43-0.217
			c0.041-0.13,0.346-1.169,0.346-1.257c0-0.173,0.174-0.217,0.174-0.39c0-0.087,0-0.305-0.174-0.305
			c-0.217,0-0.088,0.478-0.346,0.392v0.391l-0.305-0.044v0.261l-0.174,0.346l-0.389,0.174l0.084-0.392l0.393-0.605
			c0.26-0.044,0.391-1.128,0.479-1.345c0.217-0.174,0.432-0.347,0.691-0.435c0.045,0,0.174,0,0.174,0.043
			c0,0.088-0.174,0.174-0.215,0.218c0,1.085-0.348,0.348-0.348,0.868l0.348,0.086l0.172-0.173c0-0.607,0.262-0.477,0.262-0.868
			l0.303-0.174c0.086-0.173,0.217-0.347,0.217-0.562c0-0.09-0.086-0.132-0.174-0.132c-0.219,0-0.174,0.132-0.174,0.304
			c0,0.043-0.045,0.13-0.131,0.13c0.045-0.174,0-0.347-0.215-0.347c-0.133,0-0.045-0.216-0.045-0.302
			c0-0.045-0.043-0.131-0.129-0.131c-0.174,0-0.219,0.217-0.395,0.174c0,0.172-0.301,0.779-0.342,0.908h-0.088
			c-0.305,0-0.479,0.912-0.783,1.172c0,0.131-0.084,0.261-0.215,0.305l0.045,0.216c0,0.087-0.219,0.087-0.262,0.087l-0.305,0.261
			c-0.129,0-0.172,0.043-0.172,0.174c0,0.085-0.088,0.085-0.176,0.085c0,0.173-0.041,0.435-0.172,0.563h-0.043l-0.998-0.043
			l0.172-0.174v-0.304c0.133-0.128,0.219-0.302,0.219-0.476c0.043-0.478,0.348-0.13,0.348-0.606
			c-0.131-0.088-0.174-0.261-0.174-0.392c0-0.13,0.088-0.346,0.174-0.434c0.041-0.261,0.217-0.478,0.217-0.78
			c0.172,0,0.217-0.131,0.217-0.259c0-0.261-0.086-0.564-0.217-0.781l0.258-0.174v-0.26c0-0.131-0.172-0.218-0.258-0.218
			c-0.131,0.174-0.479,0.738-0.65,0.781c-0.086,1.127-0.607,0.823-0.65,1.256c0,0.045,0,0.392-0.088,0.392
			c-0.084-0.174-0.172-0.392-0.172-0.563c0-0.218,0.389-0.347,0.562-0.391l-0.045-0.477c-0.777,0.088-0.949,1.344-1.385,1.821
			c0.041-0.131-0.045-0.26-0.174-0.217c0.041-0.174,0.088-0.348,0.215-0.478v-0.088c0-0.086,0.086-0.216,0.176-0.216
			c0.219-0.217,0.303-0.909,0.344-1.17h0.219c0.217,0,0.176-0.305,0.176-0.478l0.215-0.043c0.434-0.478,0.648-1.128,0.693-1.736
			l0.133-0.128l0.041-0.304l0.174-0.305c0-0.129,0.041-0.303,0.174-0.346c0-0.131,0.043-0.304,0.174-0.392v-0.043
			c0-0.13,0.127-0.217,0.26-0.217v-0.086c0-0.131,0.043-0.261,0.172-0.348c0-0.173,0.131-0.173,0.131-0.478
			c0.131-0.043,0.172-0.217,0.217-0.346c0.088-0.132,0.176-0.26,0.176-0.39c0-0.174-0.133-0.217-0.262-0.217l-0.391,0.648
			c-0.043,0.174-0.176,0.737-0.391,0.737l-0.346,0.694l-0.393,0.131l-0.172,0.433c0.043,0,0.346,0.131,0.346,0.174
			s-0.129,0.043-0.129,0.043c-0.262,0-0.262,0-0.217,0.261c-0.264,0.304-0.564,0.866-0.564,1.258l-0.217,0.303h-0.219
			c-0.172,0-0.125,0.174-0.125,0.304c-0.133,0-0.176,0.043-0.176,0.174c0,0.13-0.086,0.13-0.172,0.13
			c0,0.348-0.305,0.434-0.566,0.564c0,0.304-0.174,0.521-0.174,0.823c-0.605,0.607-1.125,1.648-1.342,2.472l-0.262,0.305
			c-0.041,0.173-0.041,0.389-0.174,0.562v0.043c-0.26-0.086-0.52-0.086-0.781-0.086l-2.383,0.086c-0.434,0-0.822,0.217-1.258,0.086
			c-0.564,0.261-1.215-0.043-1.604,0.131c-0.131,0.261-0.52,0.087-0.738,0.087l-0.434,0.043l-0.389,0.262
			c-0.742,0.086-1.389,0.043-2.125,0.043c-0.133,0-0.307,0.086-0.395,0.173c-0.646,0.044-1.73,0.131-2.383,0.305l-0.348,0.26h-0.127
			c-0.133,0-0.566,0-0.566,0.217c-0.174,0.086-0.389,0.043-0.562,0c-0.566,0.26-2.211,0.521-2.864,0.521
			c-0.217,0-0.348,0.217-0.303,0.391c-0.348,0.043-0.781,0.261-1.041,0.261c-0.086,0-0.217,0-0.303,0.085l-1.086,0.434h-0.648
			c-0.219,0-0.869,0-0.824,0.347l-0.564,0.217h-0.215c-0.307,0.131-0.348,0.131-0.695,0.131c-0.219,0-0.172,0.216-0.172,0.433
			c0,0.131,0.086,0.131,0.215,0.131l0.131-0.174l3.295-0.129l0.172-0.175c1.303,0,2.518-0.348,3.774-0.348
			c0.045,0.045,0.088,0.131,0.174,0.131s0.086-0.086,0.086-0.173l1.691-0.044c0.086,0.044,0.174,0.131,0.174,0.26
			c0,0.044-0.562,0.088-0.695,0.088c-0.342,0-0.689,0.086-1.037,0.173c0.736,0.043,1.473-0.043,2.211-0.087
			c0.086,0,0.215,0.087,0.129,0.175c0.045,0,0.174,0.043,0.174,0.086s-0.648,0.043-0.648,0.26c-0.48,0.087-1,0.218-1.518,0.218
			l0.301,0.13h0.047c0.215,0,0.215,0.173,0.43,0.217c0,0.174-0.389,0.174-0.477,0.174c-0.434,0-0.996,0.174-1.389,0.13l-0.867,0.389
			c0,0.174,0.174,0.217,0.305,0.217c0.174,0,0.782-0.043,0.827-0.26c1.818,0,3.99-0.434,5.721-0.693
			c1.389-0.173,2.951-0.086,4.336-0.173l0.178,0.087c-0.652,0.086-1.35,0.174-1.996,0.13l-0.086,0.174l2.818,0.13
			c0.301,0,0.301,0.261,0.52,0.261c0.086,0.042,0.172,0.128,0.172,0.259c0,0.043-0.086,0.043-0.131,0.043
			c-0.26,0.087-0.475,0.174-0.693,0.304v0.174L82.076,42.9c0.127,0.131,1.168,0.868,1.168,0.304
			c0.088,0.043,0.521,0.217,0.521,0.305c0,0.172-0.824,0-0.953,0l-0.176,0.129l0.348,0.217c0.219,0.044,0.434,0,0.607-0.13
			c0.045,0,0.131,0.087,0.131,0.13c0,0.044-0.086,0.044-0.131,0.044c-0.041,0.217-0.217,0.26-0.26,0.564l-0.176,0.261
			c-0.215,0.171-0.039,0.604-0.301,0.778c-0.043,0.261-0.607,0.738-0.607,1.128L81.9,46.977c-0.043,0.261-0.043,0.694-0.389,0.694
			c-0.045,0.13-0.045,0.478,0.172,0.478c-0.824,0.432-0.91,1.517-1.299,2.341l-0.045,0.779c-0.434,0,0.172,0.348-0.607,0.348
			c-0.086,0-0.086,0.13-0.086,0.217h-0.043c-0.303,0,0.043,0.781-0.303,0.868c0.043,0.087,0.129,0.173,0.129,0.304
			c0,0.26-0.348-0.174-0.393,0.347c-0.041,0.391-0.303,1.17-0.736,1.039c0,0.391-0.389,1.042-0.648,1.303l-0.779,0.303
			c-0.133,0.26-0.133,0.174-0.436,0.131c-0.262,0.173-0.521,0.39-0.736,0.649c0,0.218-0.217,0.174-0.348,0.174
			c-0.305,0-0.258,0.65-0.652,0.65c-0.301,0-0.693,0.304-0.953,0.261l-0.648,0.26v0.26c-0.307,0.087-0.695,0.13-0.998,0.044
			c-0.086,0.043-0.739,0.303-0.739,0.391c0,0.043,0.305,0.173,0.348,0.173l-0.434,0.261c-0.607-0.044-1.473,0.347-1.906,0.781
			l-0.086,0.259c-0.133,0.044-0.48,0.52-0.607,0.304c-0.393,0.13-0.914,0.26-1.174,0.607h-0.26l-0.068,0.026l-0.102-0.123
			l-0.219-0.045l0.043,0.261c0.01,0,0.018,0.002,0.027,0.003L66.8,61.37c-0.039-0.032-0.08-0.063-0.121-0.094l-0.041-0.304h-0.045
			c-0.172,0-0.215-0.174-0.215-0.303c-0.088-0.088-0.26-0.131-0.393-0.088c-0.475-0.26-0.605-0.737-0.951-1.083l-0.174-0.086
			c-0.131-0.131-0.26-0.305-0.307-0.478l-0.258-0.217l-0.131-0.218l-0.434-0.26l-0.086-0.217c-0.477-0.26-1.605-1.734-2.082-1.864
			l0.174-0.173c-0.133,0-0.174-0.217-0.174-0.305c-0.129-0.043-0.174-0.217-0.174-0.347c-0.26-0.174-0.521-0.477-0.693-0.737v-0.434
			c-0.217,0-0.174-0.348-0.131-0.477c-0.172,0-0.258-0.174-0.477-0.174c-0.043-0.173-0.215-0.694-0.434-0.694l-0.262-0.649
			c-0.172-0.131-0.344-0.305-0.43-0.521c0-0.348-0.393-0.738-0.479-1.084c-0.131-0.043-0.172-0.175-0.172-0.304
			c-0.176-0.174-0.35-0.391-0.35-0.607c-0.129-0.043-0.129-0.217-0.129-0.304l-0.348-0.26c-0.219-0.694-0.65-1.389-1.127-1.908
			v-0.086c0-0.174-0.086-0.26-0.26-0.26c-0.348-0.565-0.562-1.303-0.695-1.952l0.736-0.259c0.174-0.044,0.262-0.261,0-0.261
			l0.133-0.305c0.301,0,0.781-0.347,0.867-0.347c0-0.087,0.041-0.13,0.127-0.13c0.088,0,0.176,0.043,0.219,0.087
			c0,0.13,0,0.217,0.129,0.217h0.133c0.086-0.261,0.301-0.564,0.564-0.694c0-0.521,0.865-0.044,0.561-0.781l0.305-0.129
			c0.043,0.042,0.129,0.129,0.215,0.129c0.045,0,0.045-0.043,0.045-0.087c0.389-0.042,0.783-0.26,1.127-0.434
			c-0.086-0.043-0.217-0.129-0.217-0.215c0-0.044,0.131-0.044,0.131-0.044c0.176-0.044,0.695-0.131,0.824-0.305l0.434-0.173
			c0.131-0.173,0.346-0.347,0.562-0.347c0.172-0.174,0.391-0.348,0.607-0.348c0.045-0.129,0.217-0.129,0.305-0.129l0.26-0.261
			c0-0.13-0.086-0.174-0.174-0.174c-0.129,0-0.258,0.044-0.391,0.087c-0.041,0.13-0.217,0.174-0.344,0.174
			c-0.045,0.13-0.176,0.174-0.307,0.174L62,40.462l-0.047-0.477c-0.084,0-0.17-0.043-0.17-0.13l0.041-0.174l0.26,0.304
			c0.088-0.043,0.305-0.173,0.088-0.173l0.129-0.348c0-0.174,0.305-0.087,0.391-0.087s0.129,0,0.129-0.087l0.35-0.347
			c0.258-0.086,0.477,0.043,0.477-0.261c0-0.086,0.52-0.216,0.691-0.476c0.176,0,0.393,0.043,0.479,0.174c0,0.043,0,0.13,0.045,0.13
			c0.129,0,0.777-0.738,0.865-0.824c0.131,0,0.217-0.131,0.217-0.26c-0.086-0.043-0.693-0.261-0.693-0.348
			c0-0.043,0.131-0.043,0.131-0.043l0.346,0.174c0.217,0,0.307,0.174,0.52,0.174c0.221-0.218,0-0.174,0.393-0.174l0.303-0.347
			c0.133,0,1.389-0.608,1.389-0.782c0.52,0,1.256-0.649,1.777-0.649l1.213-0.953c0.262,0,0.609-0.218,0.609-0.521
			c0-0.088,1.516-0.565,1.516-0.912c0.566-0.13,0.566-0.217,0.695-0.692c-0.176,0-0.262,0.173-0.434,0.173l-0.477,0.346h-0.434
			c-0.088,0.132-0.262,0.261-0.393,0.347h-0.217c-0.131,0-0.391,0-0.391-0.173c0.045,0,0.133-0.042,0.133-0.087
			c0-0.087-0.219-0.087-0.262-0.087c-0.131,0.132-0.258,0.174-0.434,0.174c-0.26,0-0.219-0.174-0.434-0.174
			c0-0.13,0.045-0.302,0.131-0.434h0.084c0.479,0-0.084-0.389,0.609-0.389c0.086,0,0.172-0.043,0.172-0.174l0.391-0.174l0.262-0.434
			c0-0.347,0.041-0.173,0.217-0.173c0.043,0,0.086-0.043,0.131-0.088l0.562-0.26l0.26-0.347h0.607
			c0.045-0.087,0.133-0.217,0.133-0.304c0-0.13-0.088-0.13-0.178-0.13c-0.217,0-1.906,0.391-1.906,0.607h-0.651
			c0,0.216-0.176,0.26-0.346,0.173c0,0.131-0.219,0.131-0.305,0.131l-0.043,0.303h-0.26c-0.131,0-0.307-0.043-0.348-0.174
			c0,0,0-0.173-0.045-0.173c-0.041,0-0.086,0.13-0.127,0.173c-0.348,0.217-1.303,0.694-1.695,0.694c-0.041,0-0.127,0-0.127-0.086
			c0-0.392,1.256-0.694,1.516-0.737c0-0.217,0.479-0.304,0.652-0.304l0.129-0.174H70.8l0.301-0.131l0.133-0.173h0.215l0.133-0.348
			c-0.045-0.043-0.088-0.128-0.088-0.217c0-0.085,0.043-0.128,0.131-0.128c0,0.043,0,0.171,0.086,0.171s0.172-0.128,0.219-0.171
			c-0.047-0.046-0.088-0.089-0.088-0.132c0-0.174,0.434-0.216,0.434-0.52l0.695-0.435c0.041-0.043,0.475-0.693,0.475-0.347
			c0.303,0,0.262-0.52,0.652-0.52l0.562-0.261c0,0,0.521-0.521,0.867-0.521l0.648-0.303c0.221,0,0.133-0.172,0.348-0.172
			l0.176-0.174c0.305,0,0.734-0.087,0.734-0.478c0.088,0,0.307-0.086,0.307-0.174c-0.088-0.043-0.262-0.043-0.395-0.043
			c-0.43,0.347-2.9,1.17-2.9,1.17c-0.174,0-0.391,0.044-0.48,0.173c-0.432,0.261-3.772,1.346-4.293,1.432l-0.348,0.305
			c-0.086,0-0.52,0.347-0.646,0.347c-0.09,0-0.262,0.043-0.262,0.174l-1.17,0.648l-0.305-0.345c-0.215,0-0.131,0.174-0.348,0.174
			c0,0.345,0,0.345-0.348,0.345c0,0,0-0.174-0.041-0.174c-0.045,0-0.131,0.131-0.131,0.174l-0.65,0.348
			c-0.174,0-1.91,0.867-1.951,0.91c0,0,0-0.173-0.045-0.173c-0.041,0-0.086,0.13-0.129,0.173h-0.391
			c-0.389,0.521-1.039,0.782-1.43,1.346c-0.262,0-0.391,0.173-0.609,0.173c0,0.044,0,0.173-0.086,0.173s-0.172-0.129-0.217-0.173
			c0-0.088-0.043-0.13-0.131-0.13c-0.346,0-0.693,0.693-0.996,0.822c-0.26,0-0.564,0.305-0.736,0.478l-0.389,0.131
			c0,0.131-0.217,0.131-0.264,0.131c-0.041,0.129-0.215,0.172-0.348,0.172v0.044c0,0.087-0.127,0.131-0.215,0.131
			c-0.477,0.26-0.955,0.477-1.475,0.65c0,0.087-0.043,0.13-0.127,0.13c-0.047,0-0.176-0.043-0.176-0.13
			c0-0.043,0.09-0.043,0.129-0.043c0-0.131-0.039-0.305-0.129-0.434c0-0.349,0.605-0.565,0.605-0.998l-0.174-0.348l0.174-0.434
			c0.088,0,0.26-0.044,0.217-0.173l0.436-0.867c0.088-0.087,0.348-0.304,0.043-0.304c0.131-0.477,0.217-0.954,0.477-1.388v-0.131
			c0-0.13,0.043-0.261,0.174-0.261c0-0.128,0.041-0.345,0.174-0.432c0.043-0.26,0.129-0.607,0.303-0.825
			c-0.217-0.043-0.65-0.129-0.65-0.389c0-0.608,0.215-1.215,0.348-1.78l-0.693-0.432c0,0.043,0,0.087-0.045,0.087
			c-0.348,0-0.564-0.608-1.041-0.608l-0.129-0.129h-0.305c-0.043-0.131-0.17-0.694,0.088-0.694
			c-0.131-0.043-0.172-0.174-0.172-0.304c-0.086-0.088-0.174-0.174-0.262-0.174c-0.086,0-0.086,0.13-0.086,0.174
			c-0.26,0.173-0.479,0.304-0.479,0.65l-0.348,0.261l-0.348-0.217c0-0.217,0.176-0.217,0.176-0.434l-0.479-0.261v0.65l-0.824-0.478
			c-0.17,0.262-0.432,0.174-0.432,0.564c-0.217,0.13-0.477,0.39-0.477,0.651l-0.348,0.216l-0.217,0.521
			c-0.305,0-0.305,0-0.305,0.302l-0.477-0.087l-0.303,0.087l-0.174,0.347c0,0.174-0.086,0.174-0.217,0.174
			c-0.086,0-0.086,0.044-0.086,0.13c-0.086,0.131-0.348,0.348-0.348,0.564c0,0.087,0.045,0.087,0.131,0.087l0.172-0.174
			l-0.041,0.174l-0.176,0.173l-0.215-0.173l-0.174,0.303c-0.262,0.044-0.131,0.564-0.348,0.738c0,0.347-0.52,0.391-0.52,0.735
			l-0.26,0.348l-0.045,0.435l-0.348,0.304l-0.172,0.346l-0.303,0.174c0,0.131,0,0.348-0.133,0.478c0,0.217-0.174,0.131-0.174,0.348
			c-0.082,0.13-0.172,0.258-0.303,0.347l0.131,0.346c0,0.173-0.131,0.26-0.303,0.173l0.045,0.304c0,0.088-0.045,0.174-0.133,0.174
			l-0.26,0.391l-0.346,0.218c0,1.387-0.824,2.86-1.346,4.075c-0.303,0-0.346,1.257-0.389,1.431H43.96
			c-0.176,0-0.262,0.131-0.262,0.304l-0.217,0.217l-0.131,0.564c-0.041,0.043-0.646,1.3-0.646,1.474
			c-0.176,0.086-0.176,0.347-0.176,0.477l-0.172,0.173c0,0.305,0.127,0.521-0.219,0.521c-0.086,0-0.131,0.044-0.131,0.13
			l-0.172,0.391c-0.219,0-0.434,0.174-0.609,0.347c-0.303,0-0.52,0.174-0.822,0.174l-0.219,0.26l-0.041-0.042l-0.52,0.302
			c-0.133,0.303-0.393,0.174-0.521,0.391c-0.174,0-0.434,0.086-0.521,0.261c-0.172,0.043-0.391,0.172-0.52,0.303
			c-1.17,0.261-1.691,0.694-2.557,1.389c-0.309,0.043-0.564,0.346-0.781,0.52l-0.348,0.043c-0.609,0.347-1.43,0.868-1.951,1.388
			l-0.262,0.087l0.131,0.131l0.52,0.173c0.086,0,0.133-0.13,0.174-0.173l-0.217-0.044c0-0.13,0.129-0.261,0.262-0.216h0.129
			l0.305-0.305c0.086,0,0.174,0.087,0.174,0.131c0,0.086-0.133,0-0.133,0l-0.213,0.174l-0.047,0.26
			c0.26-0.174,0.607-0.305,0.912-0.26c0.088-0.088,1.213-0.651,1.346-0.651c0,0,0.039-0.087,0.086-0.087
			c0.041,0,0.086,0.13,0.086,0.173l-0.172,0.131l0.127,0.347l0.217-0.217l0.262-0.044c0.348-0.26,0.781-0.39,1.215-0.477
			l-0.26,0.217l-0.393,0.043c-0.215,0.217-0.26,0.305-0.607,0.261c-0.086,0.217-0.041,0.391-0.127,0.607
			c-0.176,0.13-0.348,0.26-0.566,0.304c-0.129,0.217-0.432,0.087-0.609,0.391l-0.256,0.174c-0.047,0.13-0.176,0.086-0.219,0.215
			l-0.172-0.042l-0.086,0.217l0.172,0.304l0.086,0.086c0,0.064-0.047,0.104-0.109,0.122c0.096-0.023,0.16-0.095,0.197-0.166
			c0.26,0.131,0.174-0.042,0.084-0.172c0.047-0.043,0.047-0.089,0.133-0.089c0.043,0,0.086,0.174,0.086,0.219l0.305-0.219
			c0,0.046,0.043,0.131,0.086,0.131c0.086,0,0.086-0.042,0.127-0.085l0.309-0.046c0.086-0.085,0.434-0.475,0.561-0.475
			c0.086,0,0.176,0.043,0.262,0.086l0.043,0.129c-0.129,0.306-0.305,0.132-0.521,0.045l0.043,0.172c0,0.089-0.043,0.089-0.129,0.043
			l-0.131,0.261l-0.346,0.087l0.086,0.13h-0.129c0.043-0.086,0-0.13-0.088-0.13h-0.172v0.13c0,0.088,0,0.217-0.043,0.305
			l-0.262-0.174l-0.26,0.086c0.041,0.044,0.088,0.088,0.088,0.131s-0.131,0-0.131,0c-0.129,0.129-0.521,0.694-0.736,0.563
			c-0.088,0-0.305,0.131-0.133,0.174c-0.213,0.217-0.52,0.391-0.779,0.521c-0.129,0-0.176,0.043-0.043,0.131
			c-0.26,0.347-0.693,0.477-1.041,0.737l-0.217,0.346h-0.088c-0.129,0-0.084,0.26-0.258,0.086v0.26l-0.393,0.045
			c-0.129,0.216-0.434,0.433-0.561,0.606c0.127,0.086,0.301,0.086,0.432,0.131c0.303-0.261,0.65-0.348,0.951-0.608
			c0.219-0.347,0.699-0.174,0.955-0.129l0.176-0.262l0.305-0.129h0.041c0.086,0,0.217-0.086,0.26-0.131
			c0.219,0.131,0.047-0.346,0.348-0.215l0.219-0.131c0.041,0,0.518-0.13,0.693-0.13c0.217,0,0.217-0.26,0.52-0.174
			c0.26-0.13,0.605-0.26,0.912-0.303l0.127-0.305l0.131,0.044c0.174,0,0.217-0.261,0.436-0.174c0.129-0.043,0.781-0.477,0.908-0.391
			c0.176-0.13,0.348-0.217,0.521-0.303h0.348l-0.133,0.086c-0.172,0.348-0.389,0.954-0.348,1.345h-0.041
			c-0.129,0-0.215,0.087-0.215,0.261l-0.176,0.174c0,0.562,0.088,1.429-0.605,1.429c-0.307,0-0.307,0.565-0.045,0.565
			c0,0.391-0.174,0.78-0.174,1.258L36.5,57.199l-0.348,0.174c0,0.261-0.303,0.563-0.303,0.825l0.176,0.261l-0.086,0.217h-0.047
			c-0.043,0.086-0.043,0.172-0.129,0.216c0,0.738-0.131,0.738-0.219,1.301l-0.258,0.086h-0.09c-0.127,0-0.213,0.044-0.213,0.174
			l0.127,0.347c0,0.391-0.127,0.782-0.127,1.215l-0.176,0.348l-0.348,0.174c0,0.258-0.301,0.519-0.301,0.779
			c0.088,0.086,0.172,0.218,0.172,0.304s-0.043,0.129-0.129,0.129c-0.043,0.305-0.043,0.608-0.043,0.912l-0.129,0.217
			c0,0.174-0.348,0.521,0,0.737c0,0.13-0.043,0.304-0.131,0.433c-0.133,0.607-0.305,1.215-0.52,1.822
			c-0.307,0-0.176,0.65-0.176,0.781l-0.131,0.39L32.9,69.212c0,0.346-0.129,0.52-0.129,0.78c0,0.174,0.088,0.348,0.129,0.521
			c0.348,0,0.047-0.347,0.436-0.347c0-0.043,0.131-0.303,0.172-0.303c0.045,0,0.045,0.129,0.045,0.129l0.262,0.174
			c0.127-0.521,0.346-1.041,0.646-1.474c0-0.434,0.348-0.607,0.348-0.954l0.479-0.694c0.086-0.086,0.129-0.217,0.129-0.347
			l0.176-0.305l0.172-0.13c0-0.217-0.086-0.606,0.176-0.735c0-0.218,0-0.955,0.346-0.955c0.215,0-0.043,1.041-0.088,1.214
			c0.348,0,0.65-0.65,0.65-0.91c0.133,0,0.133-0.087,0.133-0.174s0.086-0.13,0.172-0.13l0.607-1.345c0-0.26,0.258-0.477,0.432-0.606
			c0.045-0.086,0.172-0.348,0.262-0.348c0.086,0,0.086,0.174,0.086,0.218c-0.129,0.13-0.348,0.347-0.348,0.519
			c0,0.131,0.131,0.131,0.219,0.131c0.172,0,0.52-0.173,0.129-0.173c0-0.044,0-0.175,0.043-0.175c0.088,0,0.176,0.131,0.217,0.175
			c0.045,0.173,0.045,0.347,0.045,0.564c0,0.086-0.262,0.692-0.305,0.823c-0.086,0.043-0.303,0.217-0.086,0.217
			c-0.176,0.435-0.348,1.214-0.348,1.733c-0.262,0.218-0.176,0.824-0.176,1.086c-0.303,0-0.344,0.521-0.344,0.737l-0.172,0.39
			l0.346-0.043l0.17-0.304c0.176,0,0.133-0.087,0.133-0.217c0-0.087,0.088-0.087,0.129-0.087c0.045-0.087,0.348-0.781,0.348-0.304
			h0.344c-0.039-0.261,0.047-0.521,0.09-0.78l0.305-0.175c0.215,0,0.348-0.172,0.303-0.347l0.348-0.735l0.344-0.174l0.133-0.347
			c0.086-0.088,0.26-0.305,0-0.305c0.086-0.261,0.26-0.521,0.389-0.781l0.434,0.131l-0.303,0.39l-0.043,0.392l-0.26,0.391v0.086
			c0,0.131-0.088,0.218-0.217,0.218v0.174c0,0.128-0.043,0.259-0.172,0.259c0,0.13-0.219,0.172-0.305,0.172
			c0,0.306-0.176,0.565-0.176,0.869c0,0.043,0,0.129,0.086,0.129c0.09,0,0.221-0.129,0.307-0.216c0.174,0,0.088-0.13,0.088-0.217
			c0-0.088,0.086-0.088,0.129-0.088c0.172-0.217,0.389-0.52,0.389-0.823l0.305-0.39c0.043,0,0.348,0.087,0.348,0.131h-0.086
			c-0.047,0.174-0.176,0.735-0.393,0.735l0.131,0.175h0.215c0.133,0,0.133-0.088,0.133-0.175s0.041-0.131,0.127-0.131
			c0-0.303,0.262-0.562,0.434-0.778c0.09,0.087,0.176,0.174,0.307,0.174c0.088,0,0.088-0.087,0.088-0.174
			c0.086-0.13,0.648-0.912,0.258-0.912c0.043-0.347,0.779-2.037,1.043-2.168c0-0.521,0.086-0.692,0.346-1.127h0.17l-0.127-0.26
			c0.172-0.174,0.303-0.261,0.303-0.521c0.086-0.087,0.217-0.216,0.172-0.389l0.219-0.563c0.174-0.218,0.477-0.694,0.174-0.782
			c0.174-0.477,0.389-0.954,0.648-1.387l0.176-0.131c0-0.346,0.172-0.562,0.172-0.865c0.133-0.045,0.174-0.218,0.174-0.349
			c0-0.346,0.348-0.39,0.348-0.78l0.172-0.304c0-0.174,0.131-0.217,0.131-0.391l0.172-0.304c0.307-0.13,0.045-0.562,0.307-0.735
			l0.475-0.694c-0.041-0.044-0.086-0.087-0.086-0.131c0-0.217,0.434-0.261,0.434-0.521c0-0.303,0.305-0.521,0.305-0.823
			c0.217,0,0.301,0.173,0.52,0.173c0,0.304-0.172,0.91,0.348,0.781l-0.172,0.173l0.256,0.348c0.264,0,0.219,0.65,0.521,0.65
			l-0.041,0.173c0,0.088,0.086,0.174,0.217,0.174c0.562,0.433,0.691,0.779,0.996,1.343l0.262,0.088l0.041,0.391
			c0.219,0.347,0.52,0.693,0.867,0.954v0.087c0,0.13,0.133,0.172,0.26,0.172c0.262,0.434,0.521,0.868,0.824,1.302
			c0,0.563,1.127,0.521,1.127,1.171c0.391,0,0.436,0.649,0.783,0.649c0.305,0.348,0.605,0.694,0.994,0.954
			c0,0.174,0.086,0.174,0.262,0.174c0.043,0,0.086,0.044,0.086,0.131c0.479,0.173,1.041,0.649,1.346,1.041
			c0.215,0,1.645,1.43,1.906,1.43l0.262,0.261h0.043c0.303,0.086,0.912,0.737,0.998,0.694c0.305,0.304,0.561,0.521,0.955,0.694
			c0,0.13,0.084,0.13,0.172,0.13c0.086,0,0.129,0.087,0.129,0.174c0.043,0,0.264,0,0.219,0.086h0.086
			c0.65,0,0.996,0.736,1.604,0.867c0.045,0.173,0.219,0.217,0.346,0.173c0.131,0.044,0.395,0.131,0.523,0.087
			c0.219,0.174,0.822,0.737,1.213,0.694c0.348,0.218,0.65,0.478,1.084,0.478c0.133,0.129,0.348,0.217,0.521,0.217
			c0.475,0.217,0.953,0.39,1.428,0.648c0.047,0.132,0.133,0,0.176,0c0.086,0,0.086,0.089,0.086,0.132
			c0.607-0.043,1.127,0.26,1.734,0.26c0.043,0.173,0.09,0.087,0.174,0.087c0.043,0,0.043,0.086,0.043,0.086
			c0.033-0.01,0.129-0.01,0.248-0.003l-0.074,0.187c-0.129,0.13-0.174,0.303-0.174,0.477l-0.174,0.304
			c0,0.174-0.174,0.174-0.174,0.391l-0.174,0.347c0,0.348-0.215,0.607-0.258,0.912c-0.217,0.174-0.564,1.604-0.697,1.906
			c-0.256,0.218-0.389,1.083-0.648,1.216l-0.346,0.779c0,0.131,0.086,0.477,0.086,0.477c0.045,0,0.045-0.088,0.045-0.088
			c0.389-0.217,1.385-1.775,1.691-2.254c0-0.26,0.346,0,0.346-0.347l0.176-0.259h0.039c0.176,0,0-0.304,0.393-0.261l0.389-0.867
			c0.607,0,0.955-1.475,1.303-1.475c0-0.347,1.516-1.432,0.955-1.474c0.041-0.087,0.127-0.478,0.213-0.478
			c0.09,0,0.219,0.131,0.262,0.217c0-0.174,0.133-0.346,0.174-0.52c0.348-0.175,0.52-0.218,0.52-0.651l0.348-0.521l0.133,0.174
			c-0.221-0.043-0.221,0.217-0.174,0.347c-0.219,0-0.131,0.174-0.131,0.303c0,0.131-0.047,0.174-0.176,0.174l-0.219,0.825
			l-0.518,0.692l0.043,0.26c0,0.174-0.043,0.391-0.262,0.391c0,0.435-0.346,0.478-0.346,0.955l-0.562,0.693l0.129,0.52
			c0.391,0,0-0.348,0.434-0.348c0.305,0,0.26-0.432,0.305-0.604l0.217-0.304h0.305l0.172-0.392c0-0.347,0.348-0.477,0.391-0.823
			c0.305,0,0-0.348,0.346-0.305c0-0.043,0-0.173,0.086-0.173c0.09,0,0.176,0.13,0.217,0.218c0-0.175,0.086-0.349,0.217-0.435
			c0-0.346,0.217-0.259,0.479-0.259c0.305,0,0.258-0.651,0.605-0.608c0-0.216,0.174-0.304,0.174-0.521l0.695-1.128l-0.129-0.563
			l0.348,0.217c0-0.217,0.215-0.26,0.389-0.26c0.389,0,0.781,0.26,0.781,0.694c-0.133,0.129-0.219,0.303-0.262,0.477
			c0.086,0.044,0.176,0.174,0.176,0.261c0,0.086-0.09,0.086-0.133,0.086c-0.086,0.217-0.303,0.825-0.562,0.825v0.086
			c0,0.043,0,0.174,0.086,0.174c0.129,0,0.348-0.26,0.434-0.391c0-0.347,0.521-0.39,0.521-0.78c0.391-0.261,0.736-0.563,1.084-0.868
			l0.172-0.39l0.348-0.348c0.043-0.216,0.217-0.26,0.217-0.433c0.217-0.174,0.35-0.434,0.479-0.693
			c0.041-0.218,0.213-0.218,0.213-0.478c0-0.217-0.258,0.043-0.303,0.086c0.176-0.347,0.393-0.823,0.697-1.126l0.172,0.085
			l0.215-0.302c0.047-0.089,0.693-1.605,0.869-1.605l0.127-0.131l0.221,0.131c0-0.521,0.432-0.563,0.865-0.737
			c0.564,0,0.303,0.477,1.17,0.217c0.088,0.044,0.521,0.13,0.521,0.173c0,0.131-0.217,0.174-0.217,0.261s0.348,0,0.434-0.13
			c0.174,0,0.09,0.174,0.09,0.26c0,0.087,0.084,0.087,0.127,0.087l0.477,0.217c0.088,0.174,1.041,1.042,1.301,1.042
			c0.088,0,0-0.217,0.131-0.217c0.129,0,0.389,0.434,0.479,0.562c0.043,0.217,0.172,0.693,0.434,0.693l0.605,0.737
			c0,0.304,0.562,0.392,0.607,0.694l0.869,0.521v0.042c0,0.435,0.301,0.044,0.475,0.044c0.045,0,0.045,0.045,0.045,0.088
			l0.086,0.174l-0.131,0.172c-0.086,0-0.389,0.043-0.389,0.131c0,0.086,0.172,0.13,0.215,0.173v0.217l0.26,0.217
			c0,0.478,0.348,0.088,0.348,0.521c0,0.088,0.045,0.174,0.129,0.217l0.305,0.305c0,0.13,0.043,0.304,0.174,0.347
			c0,0.304,0.562,0.822,0.734,1.083l0.09,0.434c0.391,0.043,0.434,0.563,0.779,0.563l0.307,0.174
			c0.086,0.131,0.213,0.261,0.389,0.261c-0.043-0.173-0.176-0.39-0.348-0.478l-0.172-0.304v-0.043L96.73,71v0.043
			c0,0.435,0.305,0.044,0.477,0.044c0.045,0,0.045,0.044,0.045,0.087l0.088,0.173l-0.133,0.174c-0.086,0-0.389,0.043-0.389,0.13
			c0,0.088,0.176,0.13,0.217,0.175v0.216l0.262,0.217c0,0.477,0.344,0.085,0.344,0.52c0,0.087,0.045,0.174,0.131,0.217l0.305,0.304
			c0,0.13,0.043,0.304,0.174,0.347c0,0.304,0.562,0.825,0.734,1.083l0.09,0.436c0.391,0.043,0.432,0.562,0.779,0.562
			c0.045,0.045,0.131,0.174,0.217,0.174c0.129,0,0.129-0.217,0.129-0.262c0-0.129-0.041-0.258-0.172-0.258
			c-0.129-0.133-0.174-0.436-0.174-0.607l-0.174-0.131l0.219-0.129c0-0.043,0.041-0.13,0.086-0.13c0.258,0,0.998,0.997,1.039,1.04
			c0.348,0.043,1.389,0.91,1.434,0.91c0.041,0.131,0.215,0.521,0.389,0.521l0.131-0.305l-0.305-0.348
			c0-0.477-0.648-1.17-0.824-1.732c0,0-0.086,0-0.086-0.044c0,0,0.303-0.13,0.348-0.13c0.043-0.088,0.172-0.088,0.262-0.088
			c0.172,0,0.389,0.132,0.52,0.218v0.173c0,0.303,0.475-0.259,0.475,0.434c0,0.26,0.391,0.131,0.391,0.391l0.393,0.174v-0.088
			c0-0.172,0.084-0.262,0.258-0.262c0,0.176,0.043,0.176,0.215,0.176c0.088,0,0.088,0.086,0.088,0.174
			c0.176,0,0.307,0.174,0.48,0.217c0.258,0.389,0.648,0.65,0.953,1.041c0.084,0,0.303,0.043,0.303,0.172
			c0.258,0.262,0.389,0.607,0.475,0.912l0.174,0.086l0.045,0.131l0.129-0.045v0.088c0,0.129,0.045,0.305,0.172,0.348l0.176,0.346
			l0.305,0.26v0.043c0,0.174,0.172,0.348,0.303,0.434c0,0.219,0.172-0.043,0.217-0.086c0.389,0,0.436,0.477,0.783,0.477v0.043
			c0,0.391,0.473,0.305,0.434,0.695L110,81.062c0,0.129,0,0.346,0.131,0.477c0.262,0.041,0.736,0.041,0.562,0.432
			c0.131,0.348,0.305,0.781,0.564,1.041c0.043,0,0.348-0.131,0.348-0.172H111.52z M100.721,54.391
			c-0.045,0.045-0.131,0.045-0.174,0.045c-0.086,0-0.131-0.045-0.131-0.13L100.721,54.391z M102.76,52.396
			c-0.088,0-0.131-0.086-0.131-0.173l0.131-0.044c0.043,0,0.043,0.044,0.043,0.044C102.803,52.268,102.803,52.396,102.76,52.396z
			 M103.324,52.701l-0.348-0.044c0-0.217,0.172,0,0.172-0.217h0.348C103.496,52.614,103.324,52.484,103.324,52.701z M103.582,52.268
			c-0.043,0-0.043-0.088-0.043-0.131v-0.043l0.131,0.043C103.67,52.18,103.627,52.268,103.582,52.268z M108.354,43.421l0.174,0.043
			c0,0.045-0.045,0.131-0.088,0.131c-0.086,0-0.086-0.086-0.086-0.131V43.421z M106.92,41.817h0.131c0.043,0,0.131,0,0.131,0.044
			v0.043c-0.043,0.042-0.131,0.042-0.176,0.042c-0.086,0-0.086-0.042-0.086-0.085V41.817z M104.926,51.141
			c0.521,0,0.436-0.174,0.393-0.651c0.172-0.13,0.432-0.347,0.65-0.347c0.303-0.391,0.777-0.997,1.213-1.258
			c0.258,0,0.086-0.348,0.434-0.305c0.305-0.173,0.693-0.521,0.867-0.822c0.045-0.043,0.26-0.781,0.434-0.781
			c0.043,0,0.043,0.044,0.043,0.087c0.088,0.088,0.217,0.217,0.217,0.348c0,0.043-0.041,0.086-0.086,0.13h-0.086
			c-0.088,0-0.045,0.13-0.045,0.174c0,0.086-0.084,0.043-0.131,0.043l-0.301,0.346c-0.133,0-0.133,0.088-0.133,0.174
			c0,0.087-0.041,0.13-0.127,0.13c-0.434,0.435-0.955,0.867-1.303,1.389l-0.908,0.39h-0.047c-0.172,0,0.047,0.217,0.088,0.217
			c-0.436,0.349-0.869,0.78-1.213,1.214c0,0.304-0.264,0.217-0.479,0.174l-0.391,0.13c0-0.218,0.174-0.218,0.174-0.435l-0.303,0.088
			c-0.047,0.043-0.086,0.173-0.174,0.173c-0.043,0-0.043-0.087-0.043-0.087c0-0.26,0.086-0.26,0.303-0.26l0.129-0.174l0.131,0.217
			l0.26-0.174l-0.26-0.432l0.217-0.131l0.305,0.348c0,0.043,0.041,0.215,0.131,0.215C104.926,51.269,104.926,51.183,104.926,51.141z
			 M104.84,49.015c0,0.043,0,0.131-0.086,0.131c-0.045,0-0.086-0.131-0.086-0.174L104.84,49.015z M102.672,49.665
			c0.043,0,0.088,0.044,0.088,0.087c0,0.044-0.045,0.087-0.088,0.087s-0.088-0.087-0.088-0.13
			C102.629,49.709,102.672,49.665,102.672,49.665z M102.672,50.533l0.131-0.348c0.434-0.086,0.824-0.129,0.824-0.651
			c0.303,0,0.303-0.303,0.648-0.303h0.217l-0.391,0.174c-0.262,0.347-0.605,0.737-0.953,0.997h-0.041
			c-0.217,0-0.262,0.304-0.523,0.304c0,0.045,0,0.131-0.041,0.131c-0.045,0-0.086-0.086-0.086-0.131L102.672,50.533z M95.387,33.144
			l-0.26,0.087l-0.088-0.347L95.387,33.144z M94.863,33.361c0-0.044,0-0.044,0.047-0.044c0.086,0,0.129,0.087,0.129,0.13
			l-0.176-0.043V33.361z M78.477,39.952l-0.609,0.129c-0.174,0.045-0.648,0.174-0.822,0.174c-0.172,0-0.26-0.129-0.26-0.303
			l1.863-0.043h0.045C78.693,39.952,78.52,39.952,78.477,39.952z M69.845,31.834l0.219-0.131l0.129-0.173
			c0.086,0.043,0.305,0.216,0.305,0.304c0,0.086-0.652-0.043-0.652,0.347c-0.086,0-0.475-0.087-0.475-0.261
			C69.371,31.834,69.759,31.834,69.845,31.834z M68.98,32.354c0.043,0,0.172,0,0.172,0.085c0,0.088-0.172,0.088-0.217,0.088
			L68.804,32.7C68.849,32.571,68.849,32.354,68.98,32.354z M71.148,29.795c0.086,0,0.131,0,0.131,0.087h-0.045
			c-0.086,0-0.133,0-0.133-0.087H71.148z M67.941,32.527c0.041,0,0.041,0.044,0.041,0.086c0,0.043,0,0.087-0.041,0.087
			c-0.045,0-0.092-0.087-0.092-0.129C67.849,32.571,67.896,32.527,67.941,32.527z M67.593,32.7c0.086,0,0.129,0,0.129,0.087
			c0,0.043,0,0.086-0.043,0.086c-0.086,0-0.133-0.086-0.133-0.173H67.593z M67.375,33.047c-0.129,0-0.129-0.042-0.129-0.174
			C67.332,32.873,67.375,32.96,67.375,33.047z M67.375,33.265c0,0.043,0,0.129-0.043,0.129c-0.086,0-0.086-0.129-0.086-0.174
			L67.375,33.265z M66.421,33.351l0.389-0.478c0.088,0.044,0.305,0.087,0.305,0.218c0,0.043,0,0.086-0.041,0.129
			c-0.219,0-0.348,0.131-0.566,0.131l-0.086,0.174V33.351z M66.941,33.524c0-0.043,0-0.174,0.045-0.174
			c0.041,0,0.088,0.131,0.088,0.174c-0.047,0.13-0.264,0.173-0.395,0.173c-0.127,0.174-0.346,0.262-0.561,0.262
			c0,0,0,0.129-0.045,0.129c-0.041,0-0.041-0.043-0.041-0.086S66.81,33.524,66.941,33.524z M65.164,34.131
			c0.043,0,0.086,0.044,0.086,0.088c0,0.043,0,0.13-0.086,0.13c-0.045,0-0.086-0.13-0.086-0.174
			C65.119,34.175,65.119,34.131,65.164,34.131z M65.25,37.602c0,0.043,0,0.13-0.086,0.13c-0.045,0-0.086-0.13-0.086-0.175
			L65.25,37.602z M64.861,37.904c0.041,0,0.088,0.043,0.088,0.087c0,0,0,0.043-0.047,0.043c-0.041,0-0.086-0.087-0.086-0.13H64.861z
			 M64.253,35.129c-0.045,0-0.088-0.129-0.088-0.173L64.337,35C64.337,35.043,64.337,35.129,64.253,35.129z M64.601,34.956
			c-0.088,0-0.088-0.131-0.088-0.174l0.131,0.043C64.644,34.869,64.644,34.956,64.601,34.956z M64.337,34.651
			c0-0.043,0-0.216,0.09-0.216c0.041,0,0.127,0.173,0.174,0.216c-0.393,0-0.436,0.305-0.693,0.305c-0.088,0-0.088-0.131-0.088-0.174
			C63.994,34.782,64.123,34.651,64.337,34.651z M63.861,35.129c0.088,0,0.133,0,0.133,0.087h-0.045c-0.088,0-0.129,0-0.129-0.087
			H63.861z M63.646,35c0,0.043,0,0.129-0.086,0.129c-0.047,0-0.088-0.129-0.088-0.173L63.646,35z M63.56,38.034
			c0.041,0,0.086,0.044,0.086,0.087c-0.045,0.044-0.133,0.087-0.219,0.087c-0.041,0-0.086-0.087-0.086-0.13
			C63.386,38.034,63.472,38.034,63.56,38.034z M62.646,35.604c0.348,0,0.088-0.302,0.652-0.347
			c-0.129,0.045-0.174,0.261-0.129,0.347c-0.303,0-0.303,0.348-0.736,0.348L62,36.387L61.39,36.56
			C61.652,36.125,62.171,35.778,62.646,35.604z M59.916,39.985l0.217,0.174l0.09,0.303c-0.176,0-0.307,0-0.307-0.173V39.985z
			 M59.57,40.81c0.477-0.043,1.127-0.348,1.475-0.65c0.219,0,0.219-0.174,0.434-0.174l0.26,0.348c0,0-0.133,0-0.133,0.043
			c0,0,0.219,0.086,0.264,0.086l-0.605,0.348c-0.047,0.044-0.088,0.218-0.176,0.218c-0.086,0,0-0.392-0.129-0.392
			c-0.09,0-0.09,0.131-0.09,0.174l-0.646,0.347H59.57c-0.043,0-0.176,0-0.176-0.086C59.394,40.983,59.48,40.896,59.57,40.81z
			 M59.091,41.156l0.176,0.347c-0.133,0-0.176-0.042-0.176-0.174V41.156z M57.662,34.825c0,0.044,0,0.131-0.086,0.131
			c-0.045,0-0.088-0.131-0.088-0.174L57.662,34.825z M56.49,42.458l0.479-0.174c0-0.261,0.174-0.132,0.26,0l0.26-0.349l0.348,0.045
			c0,0.043,0,0.172,0.086,0.172c0.303,0,0.477-0.346,0.736-0.475c0.088,0.041,0.477,0.172,0.477,0.258
			c0,0.045-0.17,0.045-0.215,0.045c-0.303,0.26-1.736,1.084-2.256,1.084c0-0.087,0-0.174-0.088-0.174
			c-0.086,0-0.086,0.13-0.086,0.174c-0.086,0-0.348,0-0.348-0.174L56.49,42.458z M56.49,29.623l0.174,0.302
			c-0.131,0-0.174-0.087-0.174-0.217V29.623z M56.013,43.628c0,0.044,0,0.131-0.086,0.131c-0.041,0-0.088-0.131-0.088-0.174
			c0.047,0,0.047-0.044,0.088-0.044C55.97,43.541,56.013,43.585,56.013,43.628z M55.839,35.604c0,0,0-0.172,0.047-0.172
			c0.041,0,0.041,0.086,0.041,0.13c0,0.13-0.088,0.216-0.217,0.216c0,0.044,0,0.131-0.043,0.131c-0.045,0-0.045-0.087-0.045-0.131
			C55.623,35.648,55.753,35.604,55.839,35.604z M34.203,48.528c0,0.043-0.043,0.129-0.086,0.173l-0.129,0.044
			c0-0.044-0.088-0.088-0.088-0.131s0.131,0.043,0.131,0.043c0.041-0.043,0.086-0.174,0.172-0.174V48.528z M35.416,50.566
			c-0.086-0.13-0.26-0.13-0.346-0.043l-0.043-0.087c0-0.045,0.129,0,0.129,0l0.26-0.13V50.566z M35.849,50.133
			c-0.043,0-0.043-0.044-0.043-0.087v-0.043l0.133,0.086C35.939,50.089,35.892,50.133,35.849,50.133z M37.802,48.094l-0.217-0.13
			c0.088-0.044,0.174-0.13,0.217-0.218l0.172,0.261L37.802,48.094z M38.277,47.703l-0.086,0.089c0,0-0.041-0.046-0.041-0.089
			s0.086-0.086,0.127-0.086V47.703z M33.552,69.516v-0.087l0.174,0.303C33.595,69.731,33.552,69.603,33.552,69.516z M38.71,67.087
			c-0.301,0-0.348,0-0.348-0.303h0.348V67.087z M38.798,66.653c-0.041,0-0.088-0.13-0.088-0.173c0.047,0,0.047-0.043,0.088-0.043
			c0.045,0,0.084,0.043,0.084,0.086S38.882,66.653,38.798,66.653z M39.751,61.319c-0.086,0-0.26,0-0.26-0.13
			c0-0.26,0.174-0.434,0.174-0.693l0.262,0.303C39.927,61.017,39.751,61.104,39.751,61.319z M40.058,60.365H39.97l-0.043-0.389
			c0-0.261,0.172-0.391,0.172-0.651c0.086,0.043,0.172,0.088,0.219,0.174L40.058,60.365z M41.357,55.943l0.217-0.65l0.262,0.304
			c0,0.217-0.176,0.303-0.176,0.521C41.574,56.117,41.316,56.117,41.357,55.943z M41.402,65.093v-0.217l0.127,0.348
			C41.443,65.224,41.402,65.179,41.402,65.093z M41.617,63.314c-0.043,0-0.088-0.131-0.088-0.174l0.176,0.043
			C41.705,63.228,41.705,63.314,41.617,63.314z M41.835,62.535l0.172,0.303v0.086C41.962,62.924,41.835,62.578,41.835,62.535z
			 M42.007,65.007v-0.088l0.174,0.305C42.052,65.224,42.007,65.136,42.007,65.007z M42.181,54.945l-0.305,0.174l-0.041-0.391
			c0-0.261,0.172-0.435,0.172-0.694c0.174,0.043,0.35,0.217,0.35,0.391C42.357,54.642,42.181,54.729,42.181,54.945z M43.177,51.129
			c0,0.044,0,0.131-0.084,0.131c-0.045,0-0.088-0.131-0.088-0.174L43.177,51.129z M42.917,62.361l-0.174-0.043v-0.392l0.174,0.087
			V62.361z M43.048,61.624c-0.086,0-0.131-0.088-0.131-0.174h0.045l0.131,0.086C43.093,61.581,43.093,61.624,43.048,61.624z
			 M43.177,52.647c-0.041,0-0.172-0.391-0.172-0.434c0-0.217,0.172-0.304,0.172-0.521l0.174,0.173v0.305
			c-0.215,0-0.174,0.26-0.174,0.39V52.647z M43.224,62.102v-0.175l0.17,0.304C43.31,62.23,43.224,62.188,43.224,62.102z
			 M43.265,61.45v-0.087c0-0.174,0.129-0.217,0.26-0.217l0.045-0.348h0.043c0.045,0,0.086,0.044,0.086,0.088
			C43.699,61.104,43.394,61.319,43.265,61.45z M43.699,58.111c-0.041,0-0.129,0-0.174-0.044v-0.043h0.088l0.086,0.043V58.111z
			 M44.003,57.808c-0.043,0-0.174-0.391-0.174-0.435l0.174,0.348V57.808z M44.955,57.199l-0.172-0.043v-0.389l0.172,0.087V57.199z
			 M45.087,56.464c-0.086,0-0.133-0.087-0.133-0.174h0.047c0.086,0,0.127,0,0.127,0.087C45.128,56.42,45.128,56.464,45.087,56.464z
			 M45.128,54.425v-0.086c0.045,0,0.131,0.216,0.131,0.26C45.173,54.599,45.128,54.511,45.128,54.425z M45.259,56.939v-0.172
			l0.176,0.303C45.347,57.07,45.259,57.026,45.259,56.939z M45.562,56.03c0,0.13,0,0.26-0.172,0.26h-0.131v-0.65l0.436-0.043
			c0.043,0,0.086,0.043,0.086,0.086C45.781,55.813,45.648,55.943,45.562,56.03z M45.996,52.344c-0.041,0-0.086-0.087-0.086-0.13
			c0.045,0,0.086-0.043,0.086-0.043c0.047,0,0.088,0.043,0.088,0.086S46.042,52.344,45.996,52.344z M46.171,51.866
			c-0.043,0-0.088-0.129-0.088-0.173l0.174,0.044C46.257,51.779,46.257,51.866,46.171,51.866z M46.517,53.862
			c-0.041,0-0.086-0.132-0.086-0.174l0.172,0.042C46.603,53.774,46.603,53.862,46.517,53.862z M47.515,51.65l-0.303,0.693
			c-0.348,0-0.133,0.65-0.479,0.65c-0.088-0.086-0.303-0.26-0.303-0.043c-0.041,0-0.174-0.043-0.174-0.086
			c0-0.045,0.174-0.045,0.174-0.045c0-0.692,0.953-1.431,0.953-1.864c0-0.131,0.043-0.259,0.131-0.348c0-0.042,0-0.217,0.086-0.217
			s0.086,0.175,0.086,0.217l-0.172,0.348v0.434C47.82,51.39,47.646,51.563,47.515,51.65z M47.687,50.089l0.348,0.044
			C47.949,50.177,47.687,50.263,47.687,50.089z M49.771,52.691c-0.047,0-0.09-0.131-0.09-0.174l0.176,0.043
			C49.857,52.604,49.857,52.691,49.771,52.691z M50.16,53.342l-0.131-0.348c0.262,0,0.045,0.348,0.262,0.348l0.174,0.347
			L50.16,53.342z M50.812,54.294c0-0.129-0.088-0.129-0.176-0.129c-0.043-0.044-0.172-0.131-0.172-0.217s0.129-0.086,0.172-0.086
			l0.348,0.605C50.812,54.468,50.812,54.425,50.812,54.294z M50.898,26.89c-0.045,0-0.086-0.13-0.086-0.173
			c0.041,0,0.041-0.045,0.086-0.045c0.041,0,0.086,0.045,0.086,0.088S50.984,26.89,50.898,26.89z M52.242,49.915
			c-0.088,0-0.088-0.129-0.088-0.173h0.047c0.041,0,0.086,0.044,0.086,0.087S52.287,49.915,52.242,49.915z M53.498,36.603
			c-0.086,0-0.131-0.086-0.131-0.173h0.045c0.086,0,0.131,0,0.131,0.087C53.542,36.56,53.542,36.603,53.498,36.603z M53.669,36.299
			c-0.086,0-0.127-0.086-0.127-0.174h0.041c0.086,0,0.131,0,0.131,0.088C53.714,36.256,53.714,36.299,53.669,36.299z M54.886,34.306
			l-0.041-0.347c0-0.088,0.127-0.131,0.213-0.131l0.219,0.303c0.043,0,0.088,0,0.088,0.044c0,0.174-0.174,0.391-0.307,0.521
			c0,0.043,0,0.347-0.041,0.347c-0.086,0-0.217-0.13-0.393-0.13c-0.041,0-0.086,0-0.086-0.044
			C54.539,34.651,54.755,34.436,54.886,34.306z M55.191,36.082l0.043,0.174l-0.176,0.304c-0.041,0-0.172-0.043-0.172-0.087
			c0-0.043,0.131-0.043,0.172-0.043C55.058,36.343,55.058,36.082,55.191,36.082z M55.058,35.476v-0.043
			c0.09,0,0.133,0.13,0.133,0.172C55.058,35.604,55.058,35.604,55.058,35.476z M54.064,36.387c-0.047,0-0.047-0.088-0.047-0.131
			l0.262-0.693h0.26c0.045-0.087,0.131-0.347,0.262-0.347c0.086,0,0.086,0.389,0.086,0.433C54.8,35.736,54.15,36.387,54.064,36.387z
			 M55.8,48.007c-0.09,0-0.09-0.13-0.09-0.173l-0.172-0.347h-0.174c-0.131,0-0.307-0.044-0.307-0.173
			c-0.172,0-0.258-0.131-0.213-0.304c-0.348,0-0.48-0.391-0.48-0.693c0-0.174,0.133-0.174,0.26-0.174c0.045,0,0.088,0,0.088-0.088
			l-0.174-0.173c0-0.087,0.045-0.217,0.131-0.217c0.434,0,0.521,0.911,0.607,1.172c0.215,0-0.043,0.303-0.086,0.346l0.348,0.131
			l0.084,0.173l0.217,0.044l0.174,0.303C55.97,47.877,55.886,48.007,55.8,48.007z M57.488,49.699h-0.043
			c-0.088,0-0.129-0.044-0.129-0.131C57.402,49.568,57.488,49.612,57.488,49.699z M56.664,48.44l0.131,0.088H56.75l-0.086-0.045
			H56.49C56.49,48.44,56.664,48.44,56.664,48.44z M56.968,48.832c0,0.043,0,0.129-0.088,0.129c-0.043,0-0.086-0.129-0.086-0.173
			L56.968,48.832z M56.228,47.66c0.047,0,0.088,0.043,0.088,0.086c0,0.046,0,0.131-0.088,0.131c-0.039,0-0.086-0.131-0.086-0.174
			C56.189,47.703,56.189,47.66,56.228,47.66z M56.228,52.865c-0.039,0-0.086-0.131-0.086-0.174l0.174,0.043
			C56.316,52.777,56.316,52.865,56.228,52.865z M56.404,48.181c-0.043,0-0.088-0.13-0.088-0.174l0.174,0.044
			C56.49,48.094,56.49,48.181,56.404,48.181z M56.49,53.212h0.043c0.09,0,0.131,0,0.131,0.086h-0.041
			C56.533,53.298,56.49,53.298,56.49,53.212z M58.138,59.672c-0.041-0.216-0.174-0.477-0.303-0.65l-0.174,0.044
			c-0.086,0-0.174-0.044-0.174-0.174l-0.172-0.347l0.648,0.347c0.133,0.174,0.219,0.348,0.391,0.521L58.138,59.672z M57.488,55.466
			v-0.173l0.174,0.304C57.576,55.597,57.488,55.597,57.488,55.466z M58.531,55.597c-0.521,0-1.262-0.911-1.475-1.258l-0.393-0.218
			c0-0.304,0.045-0.259,0.305-0.259c0,0,0-0.174,0.043-0.174c0,0,0.045,0.129,0.045,0.174c-0.045,0-0.088,0-0.088,0.042
			c0,0.13,0.607,0.563,0.693,0.65l0.174-0.087l-0.174,0.174c0.131,0.087,0.174,0.261,0.174,0.39v0.131
			c0.086,0,0.174-0.347,0.174-0.391l0.129,0.478l0.52,0.217C58.658,55.554,58.617,55.597,58.531,55.597z M59.091,57.287
			l-0.258-0.348l0.217-0.043c0.084,0,0.217,0.043,0.217,0.174l0.303,0.26L59.091,57.287z M63.041,60.713
			c-0.088,0-0.133-0.131-0.133-0.174l0.133,0.043V60.713z M75.096,58.685l-0.047,0.087l-0.129-0.13
			C74.963,58.642,75.049,58.642,75.096,58.685z M73.574,61.373c0.045,0.043,0.045,0.087,0,0.13
			C73.574,61.503,73.533,61.373,73.574,61.373z M69.759,61.2l0.045,0.087c0,0.042-0.045,0.086-0.086,0.086
			c-0.047,0-0.086,0-0.086-0.044L69.759,61.2z M69.324,61.46v0.043c0,0.044-0.039,0.087-0.086,0.087c0,0-0.041,0-0.041-0.043
			L69.324,61.46z M68.98,61.46c0,0.039-0.705,0.323-0.971,0.411c-0.021-0.005-0.043-0.011-0.066-0.016
			C67.99,61.502,68.683,61.46,68.98,61.46z M67.634,61.633l0.25,0.215c-0.039-0.005-0.082-0.007-0.119-0.007
			c0,0.03,0.008,0.068,0.02,0.104c-0.078,0.023-0.162,0.051-0.254,0.081c-0.092-0.078-0.186-0.158-0.271-0.242L67.634,61.633z
			 M64.296,62.318l0.217,0.173C64.296,62.491,64.337,62.491,64.296,62.318z M64.296,61.624c0.041,0.043,0,0.086,0.041,0.129
			l-0.041,0.044V61.624z M63.689,61.407v-0.174c0.043,0,0.086,0.13,0.086,0.174l0.391,0.174c0.043,0.172,0.217,0.346,0.389,0.433
			l0.047-0.217h0.043l0.127,0.261c-0.041,0.044,0.045,0.13,0.09,0.087l0.346,0.129l-0.346,0.045
			c-0.479-0.217-0.912-0.435-1.301-0.782L63.689,61.407z M63.472,58.285c-0.086,0-0.174-0.044-0.217-0.087
			C63.341,58.198,63.427,58.198,63.472,58.285z M63.341,60.887c0.045,0,0.045,0.043,0.045,0.043l-0.174,0.043
			C63.255,60.93,63.298,60.887,63.341,60.887z M65.552,65.31l-0.215-0.174l-0.131-0.26l-0.305,0.043l-0.131-0.26v-0.044l0.479,0.174
			c0,0.261,0.348,0.435,0.521,0.521H65.552z M66.074,65.44c0,0.043,0,0.129-0.088,0.129c-0.043,0-0.086-0.086-0.086-0.129
			l0.174-0.044V65.44z M65.857,63.487l-0.26-0.129c0.041-0.044,0.174-0.131,0.217-0.131c0.086,0,0.129,0.087,0.129,0.131
			l0.262,0.086L65.857,63.487z M66.507,66.132c-0.041-0.172-0.129-0.303-0.217-0.431l0.217,0.128l0.045,0.217
			C66.552,66.09,66.552,66.132,66.507,66.132z M66.81,66.393v-0.217l0.35,0.13L66.81,66.393z M66.855,65.743h0.043
			c0.043,0,0.088,0.043,0.088,0.086C66.941,65.829,66.855,65.786,66.855,65.743z M67.246,66.176
			c-0.047-0.13-0.086-0.216-0.172-0.303l0.346,0.217h0.041L67.246,66.176z M67.808,66.784c0,0,0-0.044,0.041-0.044
			c0.047,0,0.092,0.087,0.133,0.13C67.896,66.87,67.849,66.87,67.808,66.784z M68.457,67.087l-0.172-0.26l-0.174,0.043
			c0-0.043,0.133-0.13,0.174-0.13l0.217,0.218L68.457,67.087z M67.982,65.05l-0.562-0.261l-0.174-0.26l-0.305-0.174l-0.131-0.304
			c0.305,0.13,0.564,0.39,0.783,0.607c0,0,0.086-0.044,0.129-0.087h-0.043l-0.172-0.391l0.039-0.087
			c0.088,0,1.303,0.824,1.434,0.912l0.652,0.172c0.213,0.262,0.605,0.522,0.953,0.607c0.041,0.087,0.777,0.26,0.863,0.304
			l0.176,0.173c0.346,0,0.694,0.13,1.042,0.218c0.023,0,0.168-0.043,0.281-0.09c-0.035,0.056-0.064,0.113-0.064,0.187
			c-0.131,0.086-0.176,0.303-0.176,0.433c-0.031,0.032-0.121,0.22-0.221,0.457c-0.324-0.21-0.672-0.339-1.038-0.553l-0.301-0.044
			c-0.047-0.217-0.174-0.347-0.389-0.261c-0.48-0.478-1.521-0.78-2.082-1.256h-0.09C68.371,65.354,68.244,65.05,67.982,65.05z
			 M71.625,67.261c0,0.043-0.043,0.087-0.088,0.087c-0.043,0-0.043,0-0.043-0.044L71.625,67.261z M69.632,67.218L69.5,67.174
			l-0.043-0.087h-0.045c0.045-0.043,0.045-0.086,0.088-0.086L69.632,67.218z M68.677,66.523l0.127,0.086
			C68.718,66.609,68.718,66.566,68.677,66.523z M71.929,68.649l-0.262-0.174l-0.305-0.043c-0.129-0.131-0.348-0.174-0.518-0.131
			c-0.045-0.13-0.219-0.217-0.348-0.173l-0.219-0.217c-0.389-0.044-0.908-0.305-1.17-0.564v-0.174l0.176-0.13
			c0,0.13,0.039,0.13,0.086,0.086c-0.047,0.044-0.047,0.131-0.047,0.174c0,0.044,0.047,0.088,0.088,0.044
			c0.088,0.044,0.174,0.13,0.26,0.13c0.133,0,0.047-0.174,0.047-0.217l1.342,0.217c0.174-0.086,0.389-0.043,0.607-0.086
			c0.043,0.043,0.262,0.216,0.215,0.043l-0.041-0.043l0.477,0.086c0.035,0.036,0.074,0.068,0.119,0.103
			c-0.162,0.393-0.336,0.866-0.336,0.992l-0.033,0.078C72.031,68.644,71.988,68.643,71.929,68.649z M72.707,71.304
			c-0.129,0-0.217-0.087-0.217-0.217h0.133c0.129,0,0.215,0.044,0.215,0.174L72.707,71.304z M74.268,69.18
			c-0.086,0-0.127-0.087-0.127-0.174h0.041c0.086,0,0.131,0,0.131,0.087C74.312,69.136,74.312,69.18,74.268,69.18z M75.008,62.154
			c-0.045-0.044-0.088-0.174-0.174-0.174c-0.043,0-0.043,0.174-0.043,0.174l-0.131,0.087l-0.045,0.434L74.4,63.109h0.043
			c0.131,0,0.131,0.215,0.131,0.302c-0.307,0-0.348,0.649-0.348,0.867l-0.219,0.348c-0.043,0.173-0.172,0.26-0.215,0.434
			c-0.133,0.216-0.391,0.563-0.434,0.824l-0.305,0.26c0,0.046-0.012,0.084-0.027,0.12c-0.082-0.024-0.203-0.044-0.23-0.044
			c-0.827-0.347-0.65-0.692-1.477-0.866l-0.086-0.261l-0.693-0.304l0.045-0.217c-0.174-0.26-0.479-0.651-0.826-0.607l-0.736-0.391
			l-0.043-0.347l-0.303-0.13c-0.326-0.325-0.592-0.439-0.918-0.645l0.352-0.038c0.086-0.045,0.26-0.088,0.346,0
			c0.131-0.088,0.307-0.131,0.479-0.131v-0.043c0.217-0.044,0.436-0.087,0.65-0.174c0.047,0.043,0.086,0.087,0.133,0.087
			c0.041,0,0.086-0.044,0.127-0.087l0.781-0.261c0,0.043,0.043,0.087,0.086,0.087c0.217,0,0.564-0.391,0.697-0.087
			c0.432-0.174,0.866-0.304,1.342-0.304h0.52c-0.086,0.044-0.086,0.13-0.086,0.218l0.041,0.129l0.393,0.088
			c0.217-0.088,1.344-0.348,1.518-0.348h0.174C75.311,61.807,75.311,62.154,75.008,62.154z M75.438,58.598h-0.041
			c-0.043,0-0.086,0-0.086-0.087v-0.043c0.043,0,0.127,0,0.127,0.088V58.598z M76.221,65.884l-0.348,0.607
			c-0.129,0-0.258-0.045-0.258-0.217c0-0.217,0.434-0.781,0.689-0.737v-0.131c0.047,0,0.047,0.174,0.047,0.174
			C76.352,65.667,76.352,65.927,76.221,65.884z M77.479,63.411c0.043,0,0.129,0,0.129,0.087c0,0.044-0.043,0.088-0.086,0.088
			c-0.088,0-0.129-0.088-0.129-0.175H77.479z M76.652,66.403c-0.084,0-0.215-0.044-0.215-0.129c0-0.174,0.131-0.305,0.172-0.478
			l0.217,0.304L76.652,66.403z M77.479,64.278c-0.217,0-0.174,0.348-0.133,0.477c-0.041-0.086-0.127-0.172-0.215-0.172
			c-0.086,0-0.129,0.086-0.129,0.172h-0.045c-0.131,0-0.305-0.043-0.305-0.217l0.566-0.129c0-0.218,0.174-0.304,0.174-0.521
			l0.348-0.131L77.479,64.278z M77.912,63.195l0.043-0.217l0.131,0.302C77.998,63.28,77.912,63.28,77.912,63.195z M78.562,66.317
			c-0.086,0-0.129-0.132-0.129-0.174l0.17,0.086C78.604,66.274,78.604,66.317,78.562,66.317z M79.123,60.333
			c-0.041,0-0.041-0.086-0.041-0.129v-0.045l0.131-0.043c0,0,0.043,0,0.043,0.043C79.256,60.247,79.213,60.333,79.123,60.333z
			 M79.471,65.71c-0.258-0.043-0.301,0-0.301-0.304h0.301V65.71z M81.426,61.416l0.303-0.303c0-0.044,0-0.305,0.129-0.305
			c0.086,0,0.174,0.087,0.174,0.175c0,0.13-0.174,0.13-0.264,0.13L81.9,61.59L81.6,61.98l-0.088,0.478c-0.172,0-0.348,0-0.348-0.217
			C81.164,61.59,81.381,61.807,81.426,61.416z M80.078,64.583c-0.086,0-0.172-0.045-0.172-0.174c0-0.261,0.393-0.823,0.52-1.04
			l0.262,0.173c-0.129,0.347-0.262,0.692-0.434,0.996L80.078,64.583z M81.295,66.144c0.045-0.174,0.045-0.174,0.217-0.174
			C81.467,66.058,81.381,66.144,81.295,66.144z M80.992,65.58l-0.35-0.043v-0.305l0.869-0.737l0.088-0.694
			c0.168,0.088,0.344,0.26,0.344,0.478C81.943,64.669,81.207,65.232,80.992,65.58z M81.9,65.32c-0.043,0-0.043-0.088-0.043-0.131
			c0.086,0,0.174,0.043,0.174,0.131H81.9z M81.684,62.718v-0.26c0.217,0.174,0.479,0.347,0.479,0.651
			C81.857,63.109,81.684,63.021,81.684,62.718z M83.375,63.237c-0.043,0-0.043-0.085-0.043-0.085v-0.088
			c0.043,0,0.043-0.043,0.086-0.043c0.047,0,0.047,0.043,0.047,0.088C83.465,63.152,83.418,63.237,83.375,63.237z M97.035,53.742
			c-0.086,0-0.174-0.086-0.174-0.174l0.436-0.217l0.301,0.043C97.424,53.525,97.252,53.742,97.035,53.742z M97.555,55.867
			c-0.086,0-0.086-0.088-0.086-0.131v-0.043l0.172,0.043C97.641,55.779,97.598,55.867,97.555,55.867z M99.506,54.695
			c0,0.043-0.041,0.173-0.129,0.173v-0.173c-0.26,0-0.52,0.13-0.652,0.347h-0.043c-0.258,0-0.258,0.304-0.52,0.304
			c-0.133,0.087-0.346,0.174-0.521,0.174c-0.086,0-0.172,0-0.172-0.13v-0.044l0.172-0.173c0.088,0,0.262-0.045,0.262-0.174
			c0.041-0.044,1.344-0.781,1.475-0.781c0,0.045,0,0.261,0.129,0.218l-0.129,0.26H99.506z M99.766,54.607
			c-0.041,0-0.086-0.129-0.086-0.172l0.174,0.043C99.854,54.521,99.854,54.607,99.766,54.607z M102.281,50.057
			c0,0.043,0,0.129-0.086,0.129c-0.043,0-0.086-0.129-0.086-0.174L102.281,50.057z M101.283,50.489l0.305,0.044
			c-0.045,0.044-0.305,0.13-0.305,0V50.489z M99.984,52.05c0.086,0,0.215-0.042,0.258-0.13c0.348,0,0.781-0.478,0.998-0.651
			c0.088-0.128,0.262-0.128,0.389-0.128c0.133-0.132,0.307-0.174,0.436-0.132v-0.086h0.174l-0.562,0.434
			c0,0.217-0.219,0.129-0.348,0.086l-0.219,0.348c-0.26,0.173-0.52,0.218-0.822,0.347l-0.693,0.304h-0.043l-0.086,0.044l0.434-0.435
			H99.984z M99.074,37.653c0.131,0,0.605,0.131,0.605,0.217c0,0.045-0.043,0.045-0.086,0.045c-0.217,0-0.434-0.088-0.609-0.174
			C98.984,37.697,99.029,37.653,99.074,37.653z M98.465,38.564c0,0.088-0.041,0.131-0.088,0.131c-0.127,0-0.215-0.217-0.215-0.304
			L98.465,38.564z M97.121,37.958c-0.391,0-0.693,0-0.693-0.477C96.646,37.523,97.121,37.697,97.121,37.958z M93.395,36.526
			c0.041,0,0.041,0.043,0.041,0.087l-0.041,0.043h-0.088l-0.045-0.13H93.395z M91.525,36.873c0.047,0.088,0.088,0.174,0.088,0.304
			c0,0.087-0.041,0.131-0.129,0.131c-0.088-0.087-0.174-0.175-0.174-0.304C91.311,36.873,91.441,36.873,91.525,36.873z
			 M90.92,44.939c0-0.304,0.346-0.304,0.391-0.693c0.086,0,0.434,0.043,0.434,0.086s-0.26,0.174-0.303,0.217l-0.348,0.693
			c0,0.086-0.086,0.217-0.174,0.217c-0.084,0-0.172-0.131-0.172-0.217L90.92,44.939z M89.447,34.879
			c0.086,0,0.086,0.087,0.086,0.131v0.043l-0.172-0.043C89.361,34.966,89.402,34.879,89.447,34.879z M88.795,50.1l0.086-0.043
			c0.047,0,0.088,0.043,0.088,0.086s-0.041,0.131-0.088,0.131c-0.086,0-0.086-0.088-0.086-0.131V50.1z M87.018,52.874l-0.303,0.043
			V52.57c0.129,0,0.26-0.13,0.303-0.26l0.348,0.217L87.018,52.874z M88.232,51.529c-0.129,0.044-0.346,0.087-0.477,0.087
			c-0.088,0-0.348-0.043-0.348-0.174l0.348-0.174c0.041-0.215,0.174-0.346,0.217-0.562l0.475,0.131c0-0.131,0-0.348,0.133-0.435
			l0.348-0.043c0,0.087-0.047,0.261-0.176,0.261l-0.346,0.389L88.232,51.529z M93.219,50.012l-0.305,0.262h-0.086
			c-0.086,0-0.215,0-0.303,0.086c-0.348,0-0.174,0-0.174,0.174l-0.043,0.13l-0.521-0.13c0,0.304,0,0.304-0.303,0.304
			c-0.219,0.086-0.434,0.172-0.607,0.304c-0.041,0.128-0.172,0.173-0.303,0.173l-0.305,0.26c-0.301,0.086-1.256,0.477-1.604,0.477
			c-0.043,0-0.174-0.042-0.174-0.087c0-0.087,0.131-0.13,0.174-0.173c0-0.174,0.086-0.217,0.262-0.217
			c0.172,0,0.172-0.391,0.215-0.52c0.043,0,0.174,0,0.174-0.087s-0.131-0.216-0.217-0.261l0.176-0.347
			c0.432,0,0.432-0.348,0.561-0.65l0.086,0.043c0.133,0,0.086-0.304,0.086-0.39c0.393-0.217-0.172-0.608,0.523-0.608l0.086-0.477
			h-0.086c-0.348,0-0.348,0.303-0.736,0.217l-0.307,0.348c-0.213,0-0.213,0.26-0.172,0.39l-0.348,0.303
			c-0.041,0-0.174,0-0.174-0.086s0.133-0.217,0.174-0.26c0-1.388,1.172-1.647,1.172-2.342c0.434-0.26,0.348-0.91,0.736-0.91
			l0.174,0.304c-0.043,0.39-0.391,0.434-0.391,0.78l-0.391,0.434c0,0.13-0.041,0.347-0.172,0.435h0.691
			c0-0.218-0.041-1.086,0.389-0.651l0.133-0.261v-0.303l0.389-0.391c0.131-0.304,0.262-0.608,0.348-0.955h0.086
			c0.262,0,0.262-0.128,0.262-0.302c0-0.132,0.045-0.261,0.172-0.261c0-0.217,0.047-0.434,0.305-0.434
			c1.82,0,3.295,0.607,5.031,0.736v0.088c0,0.519,0.869,0.129,0.869,0.736l0.52,0.087c0,0,0-0.131,0.041-0.131
			c0.086,0,0.219,0.435,0.262,0.521l-0.609,0.825l-0.389-0.043L98.51,47.28c-0.172,0-0.133,0.131-0.133,0.217
			c0,0.348-0.605,0.435-0.908,0.435c-0.217,0,0,0.346-0.305,0.26l-0.346,0.129c-0.172-0.043-0.348,0-0.348,0.217
			c-0.129,0-0.258,0.043-0.305,0.174l-0.434,0.261c-0.389,0-0.994,0.26-1.299,0.477h-0.09c-0.084,0-0.127,0.044-0.127,0.131h-0.303
			l-0.045,0.347L93.219,50.012z M94.217,58.556c-0.088,0-0.088-0.131-0.088-0.175l0.131,0.044
			C94.26,58.468,94.26,58.556,94.217,58.556z M97.988,63.064c-0.086,0-0.086-0.086-0.086-0.129c0.086,0,0.174,0.043,0.174,0.129
			H97.988z M99.205,70.176c-0.045,0-0.262,0.044-0.262-0.087c0-0.087,0.041-0.129,0.041-0.217v-0.044h0.045
			c0.088,0,0.176,0.087,0.217,0.174L99.205,70.176z M100.764,70.914l0.26,0.39l-0.217,0.26l-0.434-0.303
			C100.416,70.957,100.461,70.914,100.764,70.914z M100.33,71.694c-0.043,0-0.131-0.304-0.131-0.348
			c-0.346,0-0.475-0.13-0.475-0.478l-0.088-0.129c0.217,0.26,0.521,0.434,0.779,0.65C100.416,71.435,100.416,71.694,100.33,71.694z
			 M100.936,73.082c-0.086,0-0.129-0.088-0.129-0.175c0-0.043,0-0.173,0.086-0.173c0.09,0,0.043,0.173,0.043,0.217l0.174,0.131
			H100.936z M101.371,73.861c-0.043,0-0.088-0.13-0.088-0.173l0.174,0.043C101.457,73.774,101.457,73.861,101.371,73.861z
			 M101.719,74.123c-0.043,0-0.09-0.044-0.09-0.087h0.047c0.043,0,0.086,0.043,0.086,0.087H101.719z M101.848,68.312
			c0-0.391,0.176-0.347,0.176-0.521l0.172,0.13h-0.086l0.303,0.044l0.045,0.347H101.848z M102.629,68.658
			c-0.086,0-0.086-0.086-0.086-0.129v-0.044l0.086-0.043c0.043,0,0.086,0.043,0.086,0.087
			C102.715,68.572,102.672,68.658,102.629,68.658z M104.668,72.389h-0.131c0-0.046,0.043-0.089,0.043-0.131
			c0.041,0,0.088,0.042,0.088,0.085V72.389z M108.223,79.151c-0.088,0-0.131-0.131-0.131-0.174c0.09,0,0.176,0,0.176,0.088
			C108.268,79.106,108.268,79.151,108.223,79.151z"/>
	</g>
</g>
</svg>
